HIERARCHY
ROOT Pelvis
{
	OFFSET 0.000000 0.000000 0.000000
	CHANNELS 6 Xposition Yposition Zposition Zrotation Yrotation Xrotation 
	JOINT Left_hip
	{
		OFFSET 0.076090 -0.089427 -0.010735
		CHANNELS 3 Zrotation Yrotation Xrotation
		JOINT Left_knee
		{
			OFFSET 0.030200 -0.359518 -0.003501
			CHANNELS 3 Zrotation Yrotation Xrotation
			JOINT Left_ankle
			{
				OFFSET -0.011005 -0.371022 -0.045888
				CHANNELS 3 Zrotation Yrotation Xrotation
				JOINT Left_foot
				{
					OFFSET 0.023930 -0.052103 0.111084
					CHANNELS 3 Zrotation Yrotation Xrotation
					End Site
					{
						OFFSET 0.000000 0.000000 0.000000
					}
				}
			}
		}
	}
	JOINT Right_hip
	{
		OFFSET -0.073836 -0.088112 -0.007709
		CHANNELS 3 Zrotation Yrotation Xrotation
		JOINT Right_knee
		{
			OFFSET -0.035715 -0.367809 -0.006536
			CHANNELS 3 Zrotation Yrotation Xrotation
			JOINT Right_ankle
			{
				OFFSET 0.013718 -0.371958 -0.043815
				CHANNELS 3 Zrotation Yrotation Xrotation
				JOINT Right_foot
				{
					OFFSET -0.021936 -0.046387 0.114542
					CHANNELS 3 Zrotation Yrotation Xrotation
					End Site
					{
						OFFSET 0.000000 0.000000 0.000000
					}
				}
			}
		}
	}
	JOINT Spine1
	{
		OFFSET -0.001865 0.102064 -0.019455
		CHANNELS 3 Zrotation Yrotation Xrotation
		JOINT Spine2
		{
			OFFSET 0.003082 0.129260 -0.001938
			CHANNELS 3 Zrotation Yrotation Xrotation
			JOINT Spine3
			{
				OFFSET 0.001104 0.048093 0.026561
				CHANNELS 3 Zrotation Yrotation Xrotation
				JOINT Neck
				{
					OFFSET -0.002010 0.204222 -0.047183
					CHANNELS 3 Zrotation Yrotation Xrotation
					JOINT Head
					{
						OFFSET 0.005050 0.063649 0.048489
						CHANNELS 3 Zrotation Yrotation Xrotation
						End Site
						{
							OFFSET 0.000000 0.000000 0.000000
						}
					}
				}
				JOINT Left_collar
				{
					OFFSET 0.072979 0.114065 -0.031633
					CHANNELS 3 Zrotation Yrotation Xrotation
					JOINT Left_shoulder
					{
						OFFSET 0.083419 0.032092 -0.006530
						CHANNELS 3 Zrotation Yrotation Xrotation
						JOINT Left_elbow
						{
							OFFSET 0.239393 -0.012014 -0.025060
							CHANNELS 3 Zrotation Yrotation Xrotation
							JOINT Left_wrist
							{
								OFFSET 0.227297 0.008116 0.000384
								CHANNELS 3 Zrotation Yrotation Xrotation
								JOINT Left_palm
								{
									OFFSET 0.074607 -0.009248 -0.012277
									CHANNELS 3 Zrotation Yrotation Xrotation
									End Site
									{
										OFFSET 0.000000 0.000000 0.000000
									}
								}
							}
						}
					}
				}
				JOINT Right_collar
				{
					OFFSET -0.074980 0.111880 -0.037894
					CHANNELS 3 Zrotation Yrotation Xrotation
					JOINT Right_shoulder
					{
						OFFSET -0.087565 0.034353 -0.009323
						CHANNELS 3 Zrotation Yrotation Xrotation
						JOINT Right_elbow
						{
							OFFSET -0.236838 -0.013719 -0.019794
							CHANNELS 3 Zrotation Yrotation Xrotation
							JOINT Right_wrist
							{
								OFFSET -0.235053 0.006433 -0.003853
								CHANNELS 3 Zrotation Yrotation Xrotation
								JOINT Right_palm
								{
									OFFSET -0.075499 -0.006894 -0.009792
									CHANNELS 3 Zrotation Yrotation Xrotation
									End Site
									{
										OFFSET 0.000000 0.000000 0.000000
									}
								}
							}
						}
					}
				}
			}
		}
	}
}
MOTION
Frames: 12
Frame Time: 0.100000
-0.247631 -0.133863 0.676656 168.413712 32.408608 -23.091775 5.405148 -4.833611 -14.270591 0.689850 6.626578 55.096116 -2.096365 17.144675 -11.013897 5.393577 -0.237605 -12.421847 3.832790 -2.047938 5.091391 4.741279 7.326862 1.120571 10.891506 -8.051529 -10.227581 -17.209046 3.988114 7.767748 1.666171 1.239504 8.996274 2.116567 -6.735821 6.436128 2.325601 -3.412242 0.833884 -8.212507 -5.022624 -18.193579 1.515046 3.131336 -11.737117 -22.038366 -19.567130 4.448845 -59.689080 -17.881206 38.386173 -79.251736 -71.319611 95.980846 -1.582557 -14.486456 -51.414095 -14.829437 -2.858822 1.499345 13.399365 8.082649 -0.131961 13.494264 -4.571934 -5.309725 -28.443014 26.791773 -57.241591 0.714617 1.934430 -42.776907 16.835408 7.522323 -10.245118 
-0.265779 -0.140085 0.714174 167.924063 35.571635 -23.064101 3.316519 -3.489615 -18.067389 0.271628 10.435852 33.205540 -3.021032 15.097355 -7.946069 9.375046 2.268707 -11.904559 3.787099 -4.351894 8.743275 4.316593 7.617710 -0.395063 12.974801 -9.676779 -12.585165 -20.579618 7.161299 5.136565 2.664890 2.139539 9.495745 0.907262 -6.303886 6.591237 2.296693 -2.686912 1.552787 -10.921708 6.787127 -19.809843 -3.200332 13.169674 -12.181186 -21.490939 -19.549106 2.864275 -61.332398 -17.288968 38.610234 -77.619832 -70.299879 94.898528 -2.493991 -15.117417 -50.651487 -14.191140 -3.680540 -0.041598 12.166155 6.901411 0.189541 13.853627 -2.821410 -5.774543 -28.410627 26.065418 -58.536678 0.588811 2.885334 -40.764500 17.604700 7.452283 -11.454064 
-0.291069 -0.142035 0.755879 165.872160 39.494172 -23.900281 0.837377 -0.899312 -17.510132 -2.194201 12.140068 6.908343 -6.508135 12.437027 -5.944481 14.493190 2.879488 -10.347954 5.026952 -6.334769 11.894125 3.661114 6.597369 -0.359070 15.955635 -11.460364 -17.186576 -25.350203 11.299841 2.440140 3.389218 2.337903 9.745988 0.056288 -6.214880 6.573085 2.386781 -2.200522 1.793118 -13.079303 16.859012 -22.455501 -6.448440 20.675805 -11.206141 -20.888646 -20.374331 1.640077 -61.808856 -16.234526 38.699465 -77.011910 -69.704541 93.790032 -2.215377 -16.595574 -50.699009 -12.502147 -4.098842 -1.195707 11.151981 6.591838 0.332248 14.014857 -2.005111 -6.067694 -27.196557 25.731556 -59.010348 0.184845 4.759898 -38.966412 16.845224 6.603313 -11.302928 
-0.326208 -0.139895 0.803291 162.846507 42.246617 -25.642205 -0.878006 3.381959 -17.558471 -3.841424 21.292065 -4.792018 -6.257998 14.201921 -6.368181 15.096287 2.677247 -8.771967 6.991019 -8.847669 15.671312 2.917549 5.311268 0.105258 15.687594 -10.885314 -20.806205 -24.724227 11.669619 1.244860 3.795137 3.135787 9.242304 -0.364619 -6.020057 6.198976 2.850019 -1.474956 1.460678 -14.734389 25.798255 -22.063747 -9.275557 30.180507 -12.805427 -20.597232 -21.524178 0.920409 -62.103367 -15.524700 37.937975 -77.375955 -68.388741 94.473911 -2.697413 -17.017195 -49.663373 -11.963635 -4.877717 -2.348679 10.272922 6.205874 1.649951 14.420022 -1.156418 -7.177067 -26.772721 25.750122 -58.596909 -0.484285 4.951225 -38.618105 17.320394 6.893551 -11.995751 
-0.373540 -0.136413 0.859132 161.675071 44.016003 -25.305382 -0.179491 6.209467 -20.068534 -1.837066 32.617906 4.862857 -1.821147 19.235479 -9.317868 11.875730 1.956175 -7.939053 7.671058 -9.836170 16.789719 2.530534 4.413157 5.606397 12.538875 -9.417442 -25.120204 -20.303884 8.113872 1.335567 2.175065 4.859853 6.319112 -0.432309 -5.355054 5.255110 2.764777 -0.717373 0.729880 -14.475621 30.423841 -19.212442 -10.672730 36.420980 -14.154502 -20.670294 -21.405962 1.133390 -61.975533 -15.651883 37.231592 -77.489616 -66.783004 95.270493 -3.724324 -16.687381 -48.929136 -12.265918 -4.984421 -2.346254 10.626170 5.307130 3.525661 15.150587 0.106539 -7.705103 -27.495459 25.662788 -57.258663 0.047115 4.684899 -39.723526 17.326693 7.158807 -12.560228 
-0.433845 -0.150634 0.908960 161.560765 50.159426 -26.137344 -1.530490 0.067920 -19.488026 0.323867 29.021178 14.280353 2.153987 21.401917 -7.629581 8.247445 2.070958 -8.395841 6.177074 -8.201507 14.973572 2.658713 1.146089 20.089890 11.647102 -10.410242 -22.727196 -17.212076 5.622549 1.020084 -1.240096 5.337145 4.424937 -1.117526 -5.419006 5.888984 1.466575 -1.120469 -0.414025 -14.319139 31.305446 -18.040395 -11.678216 36.258717 -15.597928 -22.737951 -21.932618 2.902912 -59.645284 -16.996524 37.279651 -66.827331 -67.839530 80.793810 -6.387510 -17.513382 -49.955740 -11.037341 -4.117974 -1.709863 13.195044 4.992326 3.685140 17.475536 -0.056404 -4.419181 -29.480599 24.230969 -58.388004 1.902912 4.457391 -40.437402 15.586709 6.533479 -11.502327 
-0.491923 -0.166340 0.937913 160.280663 52.067932 -29.243426 -3.601430 -0.288757 -11.640809 -0.667094 24.080271 11.407268 8.322825 23.195454 -8.130529 2.026746 3.035892 -8.095545 2.316178 -4.791681 3.782639 5.523301 0.845907 49.775699 12.889529 -6.254331 -11.172823 -12.468515 3.022144 -3.768625 -0.777246 3.638135 5.331043 -1.247417 -2.364398 5.294196 0.394225 -0.584768 -1.114928 -12.948384 31.223289 -16.021734 -14.219591 37.384370 -15.724002 -24.651139 -20.756765 2.264693 -57.692149 -18.545999 33.466163 -37.432850 -65.820426 45.903606 -7.718083 -16.125117 -45.141809 -11.634516 -4.161963 -3.958727 14.518190 5.471419 3.888966 16.053470 1.988390 -3.404825 -28.986581 23.977871 -58.551473 1.539687 4.218930 -37.826122 15.961439 6.546928 -11.676603 
-0.538604 -0.177347 0.950860 151.332307 59.642294 -39.709508 -5.605895 1.304034 -3.405459 -1.266217 14.233700 8.413027 8.776660 21.189724 -9.030614 0.433640 7.260143 -9.065983 -0.981654 -3.740354 -4.128525 4.039194 -2.703766 60.444685 10.150017 -13.002680 -15.727523 -10.664110 5.347399 -4.256986 1.639392 0.814720 7.840436 -1.637168 -1.880108 5.371386 -0.236941 -1.742008 -0.673722 -10.755682 31.543666 -14.181139 -16.430020 36.661675 -15.042477 -25.883783 -22.611401 2.392950 -51.104726 -23.277908 23.796731 -8.415011 -48.679881 13.220844 -6.123173 -10.705306 -27.042812 -9.198518 -3.318127 -7.755864 14.269125 6.787136 2.662881 16.335458 0.984635 -2.612250 -30.478381 25.790070 -57.106284 0.692046 4.415571 -34.965505 12.143895 4.545954 -9.100558 
-0.578845 -0.184213 0.957985 132.232758 68.055628 -58.832039 -6.039591 2.875425 2.928855 -1.506264 3.881830 6.139640 10.236856 17.258477 -9.606160 -4.604289 9.954891 -7.485957 -1.639934 -0.712602 -8.587557 1.713089 -1.037244 49.706225 6.299879 -19.019029 -16.092201 -5.758848 5.040792 -2.267099 2.960461 -1.778993 10.476843 -1.552500 -2.446736 3.243912 0.243913 -3.075447 0.448475 -9.919403 30.080487 -12.060939 -17.260590 36.119082 -15.458905 -25.468346 -23.736395 2.427362 -44.001408 -24.724958 12.075625 2.989825 -24.640847 2.292293 3.632801 -5.354121 -1.228757 -10.387480 -3.778115 -15.623861 12.678583 7.406367 1.613277 18.732608 -0.751218 -2.710175 -32.000760 26.059413 -53.334729 -0.896792 2.831264 -34.236920 10.716748 3.721585 -8.654984 
-0.617842 -0.185723 0.963430 99.326686 73.241496 -89.817016 -6.785585 1.816267 5.791036 -1.425134 -5.249623 6.179960 7.729321 15.964140 -12.579832 -3.806842 9.370773 -5.367683 -1.770237 3.057352 -12.715546 2.616518 5.412906 32.078621 11.717796 -17.005733 -13.925334 -12.753798 7.870887 -1.445524 2.694454 -2.715758 10.248567 -0.961494 -2.741156 2.643882 0.221790 -3.272460 1.625398 -9.531250 29.964702 -13.203511 -15.559194 32.016368 -12.834262 -22.741775 -20.917370 0.609184 -36.225389 -21.353864 4.306404 4.960563 -7.485785 -6.518572 10.503162 -6.120658 8.675487 -11.525074 -4.266679 -17.163710 13.469972 5.490033 -0.756161 18.827177 -1.817800 -1.870740 -31.087501 25.677074 -52.663373 -3.858607 3.888656 -33.637811 12.183432 3.704388 -8.316159 
-0.660983 -0.183988 0.966401 73.867466 73.185341 -114.693251 -7.107363 1.390009 10.009574 -1.385570 -13.011045 5.710030 4.595958 18.048627 -16.262732 -1.404121 5.648522 -0.723295 -0.901402 7.930822 -16.905286 3.452934 12.179515 17.645755 16.216210 -12.849756 -9.641314 -16.105836 8.402346 1.581667 1.759853 -3.065434 11.071955 -0.202645 -2.393702 2.713237 0.231498 -2.844217 2.032672 -8.405673 30.430418 -14.385273 -15.105559 28.581135 -11.831390 -23.120313 -14.856407 1.602915 -27.313726 -4.766785 2.905560 2.313186 0.013944 -3.717391 12.487082 -9.299023 19.114391 -16.293721 -6.188633 -25.695014 16.085497 5.389126 -2.013833 15.886468 -0.898793 -1.578394 -28.940302 27.114233 -51.464461 -4.941310 5.765509 -34.306108 16.135829 4.253396 -10.923008 
-0.710946 -0.180079 0.963586 50.572601 69.261656 -137.454417 -6.374876 1.635606 14.515481 -1.074681 -20.693111 5.890409 2.195813 17.965838 -19.856020 0.917985 4.449673 1.655967 0.161768 9.237311 -19.287643 2.262571 12.279513 6.156117 17.454606 -13.340530 -8.859009 -17.584309 7.728084 4.271315 1.190400 -2.631791 11.244605 0.044350 -1.017628 4.817306 0.154592 -2.015999 2.025868 -5.680812 29.103039 -14.048531 -14.889258 22.719930 -14.338043 -23.588266 -7.272248 3.527367 -23.293146 10.500736 6.160878 0.186047 1.865987 11.390694 0.890668 -7.096978 28.101707 -18.102858 -7.500474 -33.996910 17.635944 3.737051 -1.903898 15.433039 -2.489373 -2.596863 -29.580154 28.387847 -49.350407 0.325272 7.887878 -35.873606 19.181578 4.729325 -13.089610 
